<svg aria-hidden="true" style="position: absolute; width: 0; height: 0; overflow: hidden;" version="1.1" xmlns="http://www.w3.org/2000/svg" xmlns:xlink="http://www.w3.org/1999/xlink">
<defs>
<symbol id="icon-title" viewBox="0 0 32 32">
<path d="M0 24.447v-16.124c0-1.266 1.031-2.297 2.297-2.297h10.754v3.132h-9.912v14.427h22.192v-6.088h3.132v6.943c0 1.266-1.031 2.297-2.297 2.297h-6.447v2.206c0 0.457-0.372 0.822-0.822 0.822h-9.331c-0.457 0-0.822-0.372-0.822-0.822v-2.206h-6.44c-1.272 0.007-2.303-1.024-2.303-2.29zM17.794 17.53v-2.715h-0.372c-0.933 0-1.684-0.757-1.684-1.684v-9.214c0-0.933 0.757-1.684 1.684-1.684h12.894c0.933 0 1.684 0.757 1.684 1.684v9.214c0 0.933-0.757 1.684-1.684 1.684h-9.214l-2.884 2.884c-0.163 0.157-0.424 0.052-0.424-0.17zM23.354 12.31h-1.24v1.24h1.24v-1.24zM25.618 12.31h-1.24v1.24h1.24v-1.24zM28.894 4.728h1.24v-1.24h-1.24v1.24zM28.894 13.55h1.24v-1.24h-1.24v1.24zM26.636 4.728h1.24v-1.24h-1.24v1.24zM26.636 13.55h1.24v-1.24h-1.24v1.24zM24.372 4.728h1.24v-1.24h-1.24v1.24zM22.114 4.728h1.24v-1.24h-1.24v1.24zM21.899 10.45c0 0.235 0.255 0.378 0.457 0.261l3.556-2.055c0.202-0.117 0.202-0.405 0-0.522l-3.556-2.055c-0.202-0.117-0.457 0.026-0.457 0.261v4.111zM19.856 4.728h1.24v-1.24h-1.24v1.24zM19.856 13.55h1.24v-1.24h-1.24v1.24zM17.599 4.728h1.24v-1.24h-1.24v1.24zM18.838 13.55v-1.24h-1.24v1.24h1.24z"></path>
</symbol>
<symbol id="icon-analise" viewBox="0 0 32 32">
<path d="M25.567 8.315c-1.217 0-2.204 0.987-2.204 2.204 0 0.18 0.028 0.353 0.069 0.521l-3.176 2.771c-0.255-0.103-0.533-0.163-0.825-0.163-0.422 0-0.813 0.125-1.148 0.331l-5.205-3.274c0.005-0.062 0.019-0.122 0.019-0.186 0-1.217-0.987-2.204-2.204-2.204s-2.204 0.987-2.204 2.204c0 0.317 0.070 0.617 0.19 0.89l-1.93 2.307c-0.166-0.040-0.337-0.067-0.515-0.067-1.217 0-2.204 0.987-2.204 2.204s0.987 2.204 2.204 2.204c1.217 0 2.204-0.987 2.204-2.204 0-0.297-0.061-0.58-0.167-0.839l1.959-2.341c0.15 0.032 0.304 0.051 0.463 0.051 0.415 0 0.798-0.121 1.129-0.32l5.222 3.285c-0.004 0.055-0.017 0.108-0.017 0.165 0 1.217 0.987 2.204 2.204 2.204s2.204-0.987 2.204-2.204c0-0.183-0.029-0.358-0.071-0.529l3.171-2.766c0.257 0.105 0.538 0.165 0.833 0.165 1.217 0 2.204-0.987 2.204-2.204s-0.988-2.205-2.205-2.205z"></path>
<path d="M15 24.917v3.583h-6.75v2h15.5v-2h-6.75v-3.583h14c0.55 0 1-0.45 1-1v-21.417c0-0.55-0.45-1-1-1h-30c-0.55 0-1 0.45-1 1v21.417c0 0.55 0.45 1 1 1h14zM2 3.5h28v19.417h-28v-19.417z"></path>
</symbol>
<symbol id="icon-analytics" viewBox="0 0 32 32">
<path d="M25.14 17.753c1.851 0 3.356-1.506 3.356-3.356s-1.506-3.356-3.356-3.356-3.356 1.506-3.356 3.356 1.505 3.356 3.356 3.356z"></path>
<path d="M31.391 27.5h-30.783c-0.336 0-0.609 0.273-0.609 0.609v2.352c0 0.336 0.273 0.609 0.609 0.609h30.783c0.336 0 0.609-0.273 0.609-0.609v-2.352c0-0.336-0.273-0.609-0.609-0.609z"></path>
<path d="M18.601 22.202v3.955h12.79c0.098 0 0.193 0.009 0.286 0.023v-3.994c0-1.277-0.821-2.41-2.034-2.807l-0.006-0.002-1.775-0.294c-0.151-0.046-0.313 0.033-0.367 0.183l-2.014 5.526c-0.116 0.319-0.567 0.319-0.683 0l-2.014-5.526c-0.044-0.12-0.157-0.196-0.279-0.196-0.029 0-0.058 0.004-0.087 0.013l-1.776 0.294c-1.224 0.408-2.041 1.542-2.041 2.825z"></path>
<path d="M4.474 12.955h8.537l2.724 2.725c0.15 0.15 0.35 0.229 0.554 0.229 0.101 0 0.203-0.019 0.3-0.060 0.293-0.121 0.483-0.407 0.483-0.724v-2.175c1.643-0.086 2.954-1.45 2.954-3.114v-5.789c0-1.719-1.399-3.118-3.118-3.118h-12.435c-1.719 0-3.118 1.399-3.118 3.118v5.788c0 1.719 1.399 3.118 3.118 3.118zM5.199 8.786l2.825-2.825c0.35-0.349 0.916-0.349 1.266 0l1.213 1.213 1.365-1.365c-0.34-0.127-0.582-0.454-0.582-0.838 0-0.494 0.401-0.895 0.895-0.895h1.846c0.494 0 0.895 0.401 0.895 0.895v1.846c0 0.494-0.401 0.895-0.895 0.895-0.415 0-0.763-0.283-0.865-0.667l-2.027 2.027c-0.35 0.349-0.916 0.349-1.266 0l-1.213-1.213-2.192 2.192c-0.175 0.175-0.404 0.262-0.633 0.262s-0.458-0.087-0.633-0.262c-0.35-0.35-0.35-0.916 0-1.266z"></path>
<path d="M25.866 19.001c-0.077-0.084-0.189-0.126-0.303-0.126h-0.848c-0.114 0-0.226 0.042-0.303 0.126-0.119 0.13-0.136 0.317-0.052 0.464l0.453 0.684-0.212 1.791 0.418 1.112c0.041 0.112 0.199 0.112 0.24 0l0.418-1.112-0.212-1.791 0.453-0.684c0.084-0.146 0.067-0.334-0.052-0.464z"></path>
</symbol>
<symbol id="icon-configuration" viewBox="0 0 32 32">
<path d="M10.754 29.351h10.492c0.51 0 0.929-0.412 0.929-0.929v-2.479h7.241c1.426 0 2.584-1.158 2.584-2.584v-18.126c0-1.426-1.158-2.584-2.584-2.584h-26.832c-1.426 0-2.584 1.158-2.584 2.584v18.126c0 1.426 1.158 2.584 2.584 2.584h7.241v2.479c0.007 0.517 0.419 0.929 0.929 0.929zM3.526 22.391v-16.222h24.948v16.222h-24.948zM17.805 12.324c0 0.582-0.347 1.086-0.844 1.315v5.933h-1.217v-5.933c-0.497-0.229-0.844-0.733-0.844-1.315s0.347-1.086 0.844-1.315v-2.015h1.217v2.015c0.497 0.229 0.844 0.733 0.844 1.315zM21.907 15.954c0 0.582-0.347 1.086-0.844 1.315v2.303h-1.217v-2.303c-0.497-0.229-0.844-0.733-0.844-1.315s0.347-1.086 0.844-1.315v-5.645h1.217v5.645c0.497 0.229 0.844 0.733 0.844 1.315zM13.711 14.286c0 0.582-0.347 1.086-0.844 1.315v3.977h-1.217v-3.977c-0.497-0.229-0.844-0.733-0.844-1.315s0.347-1.086 0.844-1.315v-3.977h1.217v3.977c0.497 0.229 0.844 0.733 0.844 1.315z"></path>
</symbol>
<symbol id="icon-reports" viewBox="0 0 32 32">
<path d="M2.584 24.684h10.525v2.885h-2.054c-0.34 0-0.621 0.275-0.621 0.621v1.799c0 0.34 0.275 0.621 0.621 0.621h9.89c0.34 0 0.621-0.275 0.621-0.621v-1.799c0-0.34-0.275-0.621-0.621-0.621h-2.054v-2.885h10.525c1.426 0 2.584-1.158 2.584-2.584v-18.126c0-1.426-1.158-2.584-2.584-2.584h-26.832c-1.426 0-2.584 1.158-2.584 2.584v18.126c0 1.426 1.158 2.584 2.584 2.584zM3.526 4.916h24.948v16.222h-24.948v-16.222zM20.481 7.709v1.485c0 0.203-0.164 0.366-0.366 0.366h-8.229c-0.203 0-0.366-0.164-0.366-0.366v-1.485c0-0.203 0.164-0.366 0.366-0.366h8.229c0.203 0.007 0.366 0.17 0.366 0.366zM18.538 13.825c0.183 0.229 0.020 0.576-0.281 0.576h-0.896v4.167c0 0.124-0.105 0.229-0.229 0.229h-2.303c-0.124 0-0.229-0.105-0.229-0.229v-4.167h-0.896c-0.294 0-0.458-0.34-0.281-0.576l2.276-2.898c0.144-0.183 0.412-0.183 0.556 0l2.283 2.898z"></path>
</symbol>
<symbol id="icon-test" viewBox="0 0 32 32">
<path d="M19.031 8.751h-1.818v-1.818c0-0.67-0.543-1.213-1.213-1.213s-1.213 0.543-1.213 1.213v1.818h-1.818c-0.67 0-1.213 0.543-1.213 1.213s0.543 1.213 1.213 1.213h1.818v1.818c0 0.67 0.543 1.213 1.213 1.213s1.213-0.543 1.213-1.213v-1.818h1.818c0.67 0 1.213-0.543 1.213-1.213s-0.543-1.213-1.213-1.213z"></path>
<path d="M28.765 0.076h-25.529c-1.784 0-3.235 1.451-3.235 3.235 0 0.636 0 17.757 0 18.694 0 1.784 1.451 3.235 3.235 3.235h8.826l-0.515 4.256h-1.289c-0.67 0-1.213 0.543-1.213 1.213s0.543 1.213 1.213 1.213c2.582 0 8.914 0 11.485 0 0.67 0 1.213-0.543 1.213-1.213s-0.543-1.213-1.213-1.213h-1.289l-0.515-4.256h8.826c1.784 0 3.235-1.451 3.235-3.235 0-0.562 0-17.676 0-18.694 0-1.784-1.451-3.235-3.235-3.235zM13.991 29.497l0.515-4.256h2.989l0.515 4.256h-4.019zM29.573 22.006c0 0.446-0.363 0.809-0.809 0.809-1.080 0-24.364 0-25.529 0-0.446 0-0.809-0.363-0.809-0.809v-2.154h27.147v2.154zM29.573 17.426h-27.147v-14.114c0-0.446 0.363-0.809 0.809-0.809h25.529c0.446 0 0.809 0.363 0.809 0.809v14.114z"></path>
</symbol>
<symbol id="icon-telegram" viewBox="0 0 32 32">
<path d="M27.613 4.873c0 0 2.59-1.010 2.374 1.443-0.072 1.010-0.719 4.545-1.223 8.369l-1.727 11.326c0 0-0.144 1.659-1.439 1.948s-3.238-1.010-3.598-1.299c-0.288-0.216-5.396-3.463-7.195-5.050-0.504-0.433-1.079-1.299 0.072-2.309l7.555-7.214c0.863-0.866 1.727-2.886-1.871-0.433l-10.073 6.854c0 0-1.151 0.721-3.31 0.072l-4.677-1.443c0 0-1.727-1.082 1.223-2.164 7.195-3.391 16.045-6.854 23.887-10.1z"></path>
</symbol>
<symbol id="icon-arrow" viewBox="0 0 32 32">
<path fill="#00ad97" style="fill: var(--color1, #00ad97)" d="M31.089 22.634l-1.822 1.822-13.266-13.266-13.266 13.266-1.822-1.822 15.089-15.089z"></path>
<path fill="#00ad97" style="fill: var(--color1, #00ad97)" d="M29.266 25.367l-13.266-13.266-13.266 13.266-2.734-2.734 16-16 16 16-2.734 2.734zM16 10.279l13.266 13.266 0.911-0.911-14.178-14.178-14.178 14.178 0.911 0.911 13.266-13.266z"></path>
</symbol>
<symbol id="icon-github" viewBox="0 0 32 32">
<path d="M16 0.396c-8.839 0-16 7.167-16 16 0 7.073 4.584 13.068 10.937 15.183 0.803 0.151 1.093-0.344 1.093-0.772 0-0.38-0.009-1.385-0.015-2.719-4.453 0.964-5.391-2.151-5.391-2.151-0.729-1.844-1.781-2.339-1.781-2.339-1.448-0.989 0.115-0.968 0.115-0.968 1.604 0.109 2.448 1.645 2.448 1.645 1.427 2.448 3.744 1.74 4.661 1.328 0.14-1.031 0.557-1.74 1.011-2.135-3.552-0.401-7.287-1.776-7.287-7.907 0-1.751 0.62-3.177 1.645-4.297-0.177-0.401-0.719-2.031 0.141-4.235 0 0 1.339-0.427 4.4 1.641 1.281-0.355 2.641-0.532 4-0.541 1.36 0.009 2.719 0.187 4 0.541 3.043-2.068 4.381-1.641 4.381-1.641 0.859 2.204 0.317 3.833 0.161 4.235 1.015 1.12 1.635 2.547 1.635 4.297 0 6.145-3.74 7.5-7.296 7.891 0.556 0.479 1.077 1.464 1.077 2.959 0 2.14-0.020 3.864-0.020 4.385 0 0.416 0.28 0.916 1.104 0.755 6.4-2.093 10.979-8.093 10.979-15.156 0-8.833-7.161-16-16-16z"></path>
</symbol>
<symbol id="icon-mark" viewBox="0 0 42 32">
<path fill="#fff" style="fill: var(--color2, #fff); stroke: var(--color2, #fff)" stroke="#fff" stroke-linejoin="miter" stroke-linecap="butt" stroke-miterlimit="4" stroke-width="0.64" d="M6.263 15.205l-0.22-0.21-3.307 3.132 11.651 11.114 24.477-23.351-3.285-3.134-21.192 20.197-8.124-7.75z"></path>
</symbol>
<symbol id="icon-tel" viewBox="0 0 32 32">
<path d="M27.419 20.853l-4.201-0.48c-0.116-0.014-0.25-0.023-0.385-0.023-0.909 0-1.732 0.369-2.328 0.964l-3.045 3.045c-4.718-2.435-8.467-6.185-10.835-10.764l-0.065-0.139 3.063-3.056c0.596-0.596 0.964-1.419 0.964-2.328 0-0.136-0.008-0.27-0.024-0.401l0.002 0.016-0.48-4.169c-0.199-1.655-1.595-2.926-3.287-2.926-0.001 0-0.003 0-0.004 0h-2.861c-1.87-0.005-3.424 1.55-3.31 3.417 0.878 14.126 12.176 25.408 26.286 26.286 1.867 0.114 3.424-1.44 3.424-3.31v-2.862c0-0.005 0-0.010 0-0.016 0-1.681-1.266-3.067-2.897-3.256l-0.015-0.001z"></path>
</symbol>
<symbol id="icon-mail" viewBox="0 0 43 32">
<path d="M37.333 0h-32c-2.2 0-3.981 1.8-3.981 4l-0.019 24c0 2.2 1.8 4 4 4h32c2.2 0 4-1.8 4-4v-24c0-2.2-1.8-4-4-4zM36.533 8.501l-14.139 8.837c-0.302 0.188-0.668 0.3-1.060 0.3s-0.758-0.112-1.069-0.305l0.009 0.005-14.141-8.84c-0.503-0.301-0.835-0.843-0.835-1.463 0-0.938 0.761-1.699 1.699-1.699 0.349 0 0.673 0.105 0.943 0.285l-0.006-0.004 13.4 8.381 13.4-8.381c0.264-0.176 0.588-0.282 0.937-0.282 0.938 0 1.699 0.761 1.699 1.699 0 0.62-0.332 1.162-0.828 1.459l-0.008 0.004z"></path>
</symbol>
<symbol id="icon-instagram" viewBox="0 0 32 32">
<path d="M31.968 9.408c-0.074-1.701-0.349-2.869-0.742-3.882-0.424-1.111-1.054-2.059-1.85-2.837l-0.001-0.001c-0.78-0.792-1.724-1.419-2.778-1.827l-0.054-0.018c-1.019-0.394-2.181-0.667-3.882-0.742-1.712-0.082-2.256-0.101-6.602-0.101-4.344 0-4.888 0.019-6.595 0.094-1.699 0.074-2.869 0.349-3.88 0.742-1.112 0.424-2.060 1.054-2.839 1.85l-0.001 0.001c-0.791 0.78-1.418 1.724-1.825 2.778l-0.018 0.054c-0.395 1.019-0.669 2.181-0.744 3.882-0.082 1.712-0.101 2.256-0.101 6.602 0 4.344 0.019 4.888 0.094 6.595 0.075 1.701 0.35 2.869 0.744 3.882 0.426 1.11 1.055 2.057 1.849 2.837l0.001 0.001c0.8 0.813 1.77 1.443 2.832 1.843 1.019 0.395 2.182 0.67 3.882 0.744 1.707 0.075 2.251 0.094 6.595 0.094 4.346 0 4.89-0.019 6.595-0.094 1.701-0.074 2.869-0.349 3.882-0.742 2.157-0.85 3.833-2.526 4.664-4.628l0.019-0.055c0.394-1.019 0.669-2.182 0.744-3.882 0.075-1.707 0.093-2.251 0.093-6.595s-0.006-4.888-0.080-6.595zM29.088 22.474c-0.070 1.563-0.333 2.406-0.55 2.97-0.552 1.399-1.64 2.486-3.004 3.024l-0.036 0.012c-0.56 0.219-1.411 0.482-2.968 0.55-1.688 0.075-2.194 0.094-6.464 0.094-4.269 0-4.782-0.019-6.464-0.094-1.563-0.069-2.406-0.331-2.97-0.55-0.721-0.269-1.334-0.676-1.836-1.192l-0.001-0.001c-0.517-0.503-0.924-1.117-1.184-1.803l-0.011-0.034c-0.218-0.563-0.48-1.413-0.549-2.97-0.075-1.688-0.094-2.195-0.094-6.464 0-4.27 0.019-4.784 0.094-6.464 0.069-1.563 0.331-2.406 0.549-2.97 0.269-0.722 0.678-1.337 1.198-1.837l0.002-0.002c0.504-0.517 1.119-0.923 1.806-1.182l0.034-0.011c0.56-0.219 1.411-0.48 2.968-0.55 1.688-0.074 2.195-0.093 6.464-0.093 4.275 0 4.782 0.019 6.464 0.093 1.563 0.069 2.406 0.331 2.97 0.55 0.693 0.256 1.325 0.662 1.837 1.194 0.531 0.52 0.938 1.144 1.195 1.84 0.218 0.56 0.48 1.411 0.549 2.968 0.075 1.688 0.094 2.194 0.094 6.464 0 4.269-0.019 4.768-0.094 6.458z"></path>
<path d="M16.059 7.782c-4.539 0.002-8.218 3.682-8.219 8.221v0c0.091 4.471 3.737 8.060 8.221 8.060s8.13-3.589 8.221-8.052l0-0.009c-0.001-4.54-3.681-8.22-8.221-8.221h-0zM16.059 21.334c-2.945-0-5.332-2.388-5.332-5.333s2.388-5.333 5.333-5.333c0 0 0.001 0 0.001 0h-0c2.946 0 5.334 2.388 5.334 5.334s-2.388 5.334-5.334 5.334v0zM26.525 7.458c0 1.060-0.86 1.92-1.92 1.92s-1.92-0.86-1.92-1.92v0c0-1.060 0.86-1.92 1.92-1.92s1.92 0.86 1.92 1.92v0z"></path>
</symbol>
<symbol id="icon-facebook" viewBox="0 0 32 32">
<path d="M21.328 5.312h2.923v-5.088c-1.232-0.143-2.66-0.224-4.107-0.224-0.052 0-0.104 0-0.157 0l0.008-0c-4.213 0-7.099 2.65-7.099 7.52v4.48h-4.646v5.688h4.646v14.312h5.699v-14.31h4.459l0.709-5.688h-5.17v-3.922c0-1.643 0.443-2.768 2.734-2.768z"></path>
</symbol>
</defs>
</svg>
